<svg width="121" height="33" viewBox="0 0 121 33" fill="none" xmlns="http://www.w3.org/2000/svg">
<g clip-path="url(#clip0_687_2002)">
<path fill-rule="evenodd" clip-rule="evenodd" d="M72.0714 11.8604C71.782 11.5706 71.6001 11.1873 71.5569 10.7758C71.5136 10.3643 71.6117 9.95029 71.8344 9.60449C72.057 9.25868 72.3904 9.00259 72.7775 8.87997C73.1647 8.75736 73.5815 8.77585 73.9567 8.93228C74.332 9.08871 74.6423 9.37338 74.8348 9.7376C75.0272 10.1018 75.0898 10.523 75.0118 10.9291C74.9337 11.3352 74.72 11.701 74.407 11.964C74.0941 12.227 73.7014 12.3708 73.2961 12.3709C73.0686 12.3756 72.8427 12.3326 72.6321 12.2448C72.4214 12.1571 72.2306 12.0262 72.0714 11.8604ZM74.7694 23.9879H71.828V13.2309H74.7694V23.9879ZM50.2459 23.9879H47.4944V22.6884C47.1719 23.1408 46.7492 23.5089 46.2608 23.7628C45.7724 24.0166 45.2321 24.149 44.6841 24.149C43.6617 24.181 42.6634 23.8283 41.8791 23.158C41.5062 22.8345 41.2101 22.4288 41.0132 21.9714C40.8164 21.5141 40.7238 21.0171 40.7426 20.5178C40.7426 19.4258 41.1339 18.6067 41.9165 18.0607C42.6991 17.5146 43.7687 17.2416 45.1253 17.2416H47.3206V17.1815C47.3206 16.0349 46.7261 15.4615 45.537 15.4615C44.989 15.4712 44.4466 15.5755 43.9327 15.77C43.4171 15.9493 42.9318 16.2091 42.4941 16.5399L41.1811 14.6015C42.5463 13.5804 44.1978 13.0365 45.89 13.0507C47.17 13.0507 48.2146 13.3774 49.0239 14.0309C49.8332 14.6843 50.2379 15.7172 50.2379 17.1297L50.2459 23.9879ZM47.2885 19.8899V19.3712H45.4488C44.2758 19.3712 43.6884 19.7443 43.6867 20.4905C43.6777 20.663 43.7114 20.8349 43.7848 20.9905C43.8582 21.1461 43.9688 21.2803 44.1065 21.3806C44.4667 21.6105 44.8885 21.7193 45.3124 21.6918C45.8146 21.6985 46.303 21.5245 46.6922 21.2004C46.8861 21.0458 47.0413 20.8463 47.145 20.6185C47.2487 20.3907 47.2978 20.1409 47.2885 19.8899ZM60.3721 20.638C60.3883 21.1249 60.2931 21.6089 60.0939 22.0516C59.8948 22.4942 59.5973 22.8834 59.225 23.188C58.3979 23.8492 57.3681 24.1897 56.3184 24.1491C55.4855 24.1398 54.6594 23.9942 53.8717 23.7177C53.0389 23.4395 52.2625 23.0094 51.5801 22.4481L52.8743 20.5698C53.8644 21.3967 55.1007 21.8551 56.3799 21.8693C56.6954 21.8864 57.0087 21.8055 57.2783 21.6373C57.381 21.5742 57.4659 21.4849 57.5245 21.3781C57.5831 21.2713 57.6135 21.1508 57.6126 21.0284C57.5991 20.882 57.5499 20.7414 57.4696 20.6193C57.3893 20.4972 57.2803 20.3976 57.1526 20.3295C56.7369 20.066 56.2868 19.8638 55.8157 19.7289C55.2327 19.5468 54.7871 19.3867 54.4787 19.2483C54.114 19.0858 53.7633 18.8922 53.4305 18.6695C53.0501 18.4406 52.7378 18.1102 52.5273 17.7139C52.3167 17.3176 52.2158 16.8703 52.2352 16.4199C52.2269 15.9483 52.3294 15.4816 52.5341 15.0588C52.7388 14.6361 53.0398 14.2695 53.4118 13.99C54.1943 13.3638 55.206 13.0508 56.4467 13.0508C57.785 13.0831 59.082 13.5296 60.1662 14.3312L59.0699 16.3298C58.2766 15.7321 57.3226 15.3976 56.3371 15.3715C55.4306 15.3715 54.976 15.6226 54.976 16.1305C54.9784 16.2711 55.0205 16.4081 55.0974 16.5248C55.1742 16.6416 55.2825 16.7331 55.4092 16.7884C55.8676 17.0195 56.3455 17.2077 56.8371 17.3509C57.502 17.5638 57.9753 17.7267 58.257 17.8396C58.6062 17.9887 58.9433 18.1658 59.2651 18.3692C60.0031 18.8224 60.3721 19.5787 60.3721 20.638ZM69.788 22.0516C69.9872 21.6089 70.0824 21.1249 70.0662 20.638C70.0662 19.5787 69.6972 18.8224 68.9592 18.3692C68.6362 18.1662 68.2982 17.9892 67.9484 17.8396C67.6667 17.7267 67.1935 17.5638 66.5285 17.3509C66.0369 17.2077 65.559 17.0195 65.1006 16.7884C64.9742 16.733 64.8663 16.6414 64.7899 16.5246C64.7135 16.4078 64.6719 16.2709 64.6701 16.1305C64.6701 15.6226 65.122 15.3715 66.0312 15.3715C67.0158 15.3981 67.9687 15.7326 68.7613 16.3298L69.8576 14.3312C68.7736 13.5293 67.4764 13.0827 66.1381 13.0508C64.8974 13.0508 63.8857 13.3638 63.1032 13.99C62.7312 14.2695 62.4302 14.6361 62.2255 15.0588C62.0208 15.4816 61.9183 15.9483 61.9266 16.4199C61.9072 16.8703 62.0081 17.3176 62.2187 17.7139C62.4293 18.1102 62.7415 18.4406 63.1219 18.6695C63.4551 18.8916 63.8057 19.0852 64.1701 19.2483C64.482 19.3867 64.9277 19.5469 65.5071 19.7289C65.9782 19.8638 66.4283 20.066 66.8441 20.3295C66.972 20.3972 67.0812 20.4967 67.1616 20.6189C67.242 20.741 67.291 20.8819 67.304 21.0284C67.3049 21.1505 67.2748 21.2708 67.2167 21.3774C67.1586 21.4841 67.0744 21.5736 66.9724 21.6373C66.7017 21.8053 66.3877 21.8861 66.0713 21.8693C64.7921 21.8551 63.5558 21.3967 62.5657 20.5698L61.2715 22.4481C61.9539 23.0094 62.7303 23.4395 63.5631 23.7177C64.3517 23.9942 65.1787 24.1398 66.0124 24.1491C67.0622 24.1905 68.0923 23.8499 68.9191 23.188C69.2913 22.8834 69.5889 22.4942 69.788 22.0516ZM84.7079 22.0509C84.9065 21.6083 85.0015 21.1246 84.9854 20.638C84.9836 19.5787 84.6146 18.8224 83.8784 18.3692C83.5566 18.1658 83.2195 17.9887 82.8703 17.8396C82.5904 17.7267 82.1171 17.5638 81.4504 17.3509C80.9581 17.2071 80.4794 17.0189 80.0198 16.7884C79.8936 16.7327 79.7859 16.641 79.7095 16.5243C79.6331 16.4076 79.5914 16.2708 79.5893 16.1305C79.5893 15.6226 80.0439 15.3715 80.9504 15.3715C81.9359 15.3976 82.8899 15.7321 83.6832 16.3298L84.7795 14.3312C83.6943 13.5295 82.3964 13.083 81.0573 13.0508C79.8184 13.0508 78.8067 13.3638 78.0224 13.99C77.6507 14.2697 77.3501 14.6363 77.1459 15.0591C76.9416 15.4819 76.8397 15.9485 76.8485 16.4199C76.829 16.8703 76.93 17.3176 77.1406 17.7139C77.3511 18.1102 77.6633 18.4406 78.0438 18.6695C78.3761 18.8915 78.7258 19.0851 79.0893 19.2483C79.3995 19.3867 79.8451 19.5468 80.4263 19.7289C80.8978 19.8626 81.3481 20.0649 81.7633 20.3295C81.8916 20.3971 82.0012 20.4965 82.082 20.6186C82.1629 20.7408 82.2123 20.8817 82.2259 21.0284C82.2267 21.1508 82.1964 21.2713 82.1378 21.3781C82.0792 21.4849 81.9943 21.5742 81.8916 21.6373C81.6211 21.8059 81.3069 21.8868 80.9905 21.8693C79.7113 21.8551 78.475 21.3967 77.4849 20.5698L76.1934 22.4481C76.8754 23.0098 77.652 23.44 78.485 23.7177C79.2726 23.9944 80.0987 24.1401 80.9316 24.1491C81.9822 24.1904 83.0131 23.8499 83.8409 23.188C84.2124 22.8828 84.5092 22.4935 84.7079 22.0509ZM90.1767 15.3959V20.2147C90.1563 20.5667 90.2682 20.9134 90.4896 21.184C90.5811 21.294 90.6951 21.3822 90.8235 21.4426C90.9519 21.503 91.0916 21.534 91.233 21.5334C91.5076 21.5312 91.7775 21.4609 92.0197 21.3287C92.2619 21.1965 92.4691 21.0063 92.6234 20.7744L93.7198 22.874C92.8079 23.7258 91.848 24.1544 90.8319 24.1544C90.3596 24.1655 89.8898 24.081 89.4497 23.9057C89.0095 23.7305 88.6078 23.468 88.2675 23.1333C87.5687 22.4526 87.2193 21.5262 87.2193 20.354V15.3959H86V13.2363H87.2327V10.012H90.1901V13.2309H92.7357V15.3959H90.1767ZM94.5294 10.777C94.5723 11.1879 94.7536 11.5708 95.0425 11.8603C95.201 12.0263 95.3913 12.1573 95.6015 12.2451C95.8117 12.3329 96.0374 12.3757 96.2645 12.3708C96.6692 12.3711 97.0614 12.2278 97.3741 11.9655C97.6868 11.7032 97.9006 11.3381 97.9788 10.9326C98.0571 10.5272 97.9949 10.1066 97.8031 9.74279C97.6112 9.37895 97.3015 9.09447 96.9269 8.93797C96.5523 8.78148 96.1362 8.76269 95.7495 8.88483C95.3629 9.00698 95.0298 9.26246 94.8073 9.60759C94.5847 9.95273 94.4865 10.3661 94.5294 10.777ZM94.7938 13.2308V23.9879H97.7352V13.2308H94.7938ZM102.865 23.988L98.6934 13.2119H101.75L104.373 19.9883L106.999 13.2119H110.066L105.894 23.988H102.865ZM118.215 23.7142C118.933 23.4191 119.586 22.9823 120.138 22.4289L118.494 20.6161C118.166 20.9649 117.77 21.2394 117.331 21.4219C116.893 21.6044 116.422 21.6907 115.948 21.6754C115.328 21.6805 114.724 21.4814 114.224 21.1075C113.984 20.9439 113.781 20.7317 113.626 20.4841C113.471 20.2365 113.368 19.9589 113.322 19.6687H121.007V18.0688C121.007 16.5089 120.502 15.2831 119.491 14.3912C118.465 13.4929 117.15 13.0153 115.799 13.0507C114.399 13.0309 113.046 13.5686 112.028 14.5495C110.957 15.5506 110.422 16.8975 110.424 18.5903C110.426 20.283 110.948 21.6326 111.991 22.6391C113.066 23.6568 114.491 24.1995 115.956 24.1489C116.73 24.1571 117.497 24.0094 118.215 23.7142ZM115.839 15.5297C116.377 15.5147 116.902 15.699 117.317 16.0484C117.524 16.2366 117.692 16.4647 117.812 16.7197C117.932 16.9746 118.001 17.2513 118.015 17.5337H113.395C113.426 17.2439 113.517 16.9643 113.662 16.713C113.806 16.4617 114.002 16.2445 114.234 16.0757C114.696 15.7197 115.26 15.5279 115.839 15.5297Z" fill="#2C4190"/>
<path d="M34.9281 24.3479L22.7909 2.88029C22.284 2.00288 21.5617 1.27566 20.6953 0.770448C19.8289 0.265236 18.8485 -0.000488281 17.8508 -0.000488281C16.853 -0.000488281 15.8726 0.265236 15.0062 0.770448C14.1398 1.27566 13.4175 2.00288 12.9106 2.88029L0.770754 24.3479C0.399645 25.0039 0.158793 25.7282 0.0619643 26.4794C-0.0348645 27.2305 0.0142281 27.9937 0.206435 28.7255C0.398641 29.4572 0.730195 30.1431 1.18215 30.744C1.6341 31.3448 2.19759 31.8489 2.84041 32.2273C4.13792 32.992 5.67978 33.1993 7.12694 32.8035C8.5741 32.4078 9.80807 31.4414 10.5575 30.1168L17.8494 17.2193L25.144 30.1168C25.8935 31.4414 27.1274 32.4078 28.5746 32.8035C30.0218 33.1993 31.5636 32.992 32.8611 32.2273C34.1578 31.4616 35.1039 30.2017 35.4914 28.7243C35.879 27.2469 35.6764 25.6729 34.9281 24.3479ZM16.6996 15.1826L8.83011 29.1066C8.34422 29.9623 7.54595 30.5865 6.6102 30.8424C5.67444 31.0982 4.6775 30.965 3.8378 30.4718C2.9992 29.9762 2.38743 29.1611 2.13677 28.2054C1.8861 27.2498 2.01703 26.2316 2.50082 25.3745L12.5443 7.62812L14.638 3.9205C14.8723 3.48511 15.1894 3.10186 15.5707 2.79324C15.952 2.48462 16.3898 2.25682 16.8584 2.12321C17.327 1.9896 17.8171 1.95286 18.2998 2.01515C18.7825 2.07745 19.2482 2.2375 19.6696 2.48596C20.0909 2.73441 20.4594 3.06626 20.7535 3.46204C21.0476 3.85781 21.2614 4.30955 21.3822 4.79078C21.5031 5.272 21.5287 5.77301 21.4574 6.26445C21.3862 6.75589 21.2195 7.22787 20.9673 7.65269L17.8494 13.165L16.6996 15.1826ZM31.8637 30.4718C31.024 30.965 30.0271 31.0982 29.0913 30.8424C28.1556 30.5865 27.3573 29.9623 26.8714 29.1066L19.0019 15.1826L22.6947 8.64922C22.8826 8.3182 23.0375 7.96881 23.1573 7.60628L33.2007 25.3526C33.4416 25.7784 33.5978 26.2485 33.6604 26.736C33.723 27.2235 33.6908 27.7188 33.5656 28.1936C33.4404 28.6684 33.2247 29.1133 32.9308 29.5028C32.6369 29.8923 32.2707 30.2188 31.853 30.4636L31.8637 30.4718Z" fill="#2C4190"/>
</g>
<defs>
<clipPath id="clip0_687_2002">
<rect width="121" height="33" fill="white"/>
</clipPath>
</defs>
</svg>
